<svg width="159" height="300" viewBox="0 0 159 300" fill="none" xmlns="http://www.w3.org/2000/svg">
<g id="Group 30">
<g id="Group 2">
<g id="iPhone-X-Mockup">
<g id="phone">
<g id="body" filter="url(#filter0_d_0_2411)">
<path fill-rule="evenodd" clip-rule="evenodd" d="M21.6289 0.341797H137.241C148.329 0.341797 157.318 8.88301 157.318 19.4191V280.581C157.318 291.117 148.329 299.658 137.241 299.658H21.6289C10.541 299.658 1.55249 291.117 1.55249 280.581V19.4191C1.55249 8.88301 10.541 0.341797 21.6289 0.341797Z" fill="#213648"/>
</g>
<g id="frame">
<path id="reflect-frame-top" opacity="0.595562" fill-rule="evenodd" clip-rule="evenodd" d="M137.688 0H21.113C15.6704 0.329373 10.6509 2.79416 6.05457 7.39437C9.01053 4.83354 14.2828 1.40674 21.2533 1.40674C21.2533 1.40674 132.901 1.40674 137.548 1.40674C144.519 1.40674 149.791 4.83354 152.747 7.39437C148.15 2.79416 143.131 0.329373 137.688 0Z" fill="url(#paint0_linear_0_2411)" fill-opacity="0.65"/>
<path id="reflect-frame-right" opacity="0.75" fill-rule="evenodd" clip-rule="evenodd" d="M154.163 277.603V20.9891C154.163 14.1039 151.614 11.5587 150.092 9.92433C148.571 8.28996 148.507 7.45637 150.692 8.69035C152.878 9.92433 157.249 13.5184 157.249 20.9891V277.603C157.249 285.073 152.878 288.667 150.692 289.901C148.507 291.135 148.571 290.302 150.092 288.667C151.614 287.033 154.163 284.488 154.163 277.603Z" fill="url(#paint1_linear_0_2411)"/>
<path id="reflect-frame-left" opacity="0.75" fill-rule="evenodd" clip-rule="evenodd" d="M4.63817 277.603V20.9891C4.63817 14.1039 7.18788 11.5587 8.70891 9.92433C10.2299 8.28996 10.2947 7.45637 8.10922 8.69035C5.92376 9.92433 1.55249 13.5184 1.55249 20.9891V277.603C1.55249 285.073 5.92376 288.667 8.10922 289.901C10.2947 291.135 10.2299 290.302 8.70891 288.667C7.18788 287.033 4.63817 284.488 4.63817 277.603Z" fill="url(#paint2_linear_0_2411)"/>
</g>
<g id="controls">
<path id="vol+" fill-rule="evenodd" clip-rule="evenodd" d="M0 62.4345C0 61.6057 0.671881 60.9338 1.50069 60.9338V60.9338C2.32949 60.9338 3.00138 61.6057 3.00138 62.4345V98.0436C3.00138 98.8724 2.32949 99.5443 1.50069 99.5443V99.5443C0.671881 99.5443 0 98.8724 0 98.0436V62.4345Z" fill="#2E423C"/>
<path id="power" fill-rule="evenodd" clip-rule="evenodd" d="M155.696 93.9267C155.696 93.0979 156.368 92.426 157.197 92.426V92.426C158.026 92.426 158.698 93.0979 158.698 93.9267V119.095C158.698 119.924 158.026 120.596 157.197 120.596V120.596C156.368 120.596 155.696 119.924 155.696 119.095V93.9267Z" fill="#2E423C"/>
</g>
</g>
<g id="Screen">
<path id="Screen Mask" fill-rule="evenodd" clip-rule="evenodd" d="M65.7015 7.4668L20.7182 7.4668C14.0049 7.4668 9.11328 12.0048 9.11328 17.9316V271.365C9.11328 279.093 16.6717 285.941 25.2183 285.941H133.636C141.869 285.941 149.741 279.04 149.741 271.365V18.6167C149.741 11.5129 144.428 7.50904 138.137 7.4668L92.4401 7.4668C92.2669 7.49496 89.1279 8.77585 87.8012 12.0048C86.4745 15.2337 83.805 17.8077 80.8823 17.8077H77.4877C76.0984 17.8077 72.4409 16.4699 70.5889 12.0048C68.7368 7.53966 65.8747 7.49496 65.7015 7.4668Z" fill="white"/>
<mask id="mask0_0_2411" style="mask-type:luminance" maskUnits="userSpaceOnUse" x="9" y="7" width="141" height="279">
<path id="Screen Mask_2" fill-rule="evenodd" clip-rule="evenodd" d="M65.7015 7.4668L20.7182 7.4668C14.0049 7.4668 9.11328 12.0048 9.11328 17.9316V271.365C9.11328 279.093 16.6717 285.941 25.2183 285.941H133.636C141.869 285.941 149.741 279.04 149.741 271.365V18.6167C149.741 11.5129 144.428 7.50904 138.137 7.4668L92.4401 7.4668C92.2669 7.49496 89.1279 8.77585 87.8012 12.0048C86.4745 15.2337 83.805 17.8077 80.8823 17.8077H77.4877C76.0984 17.8077 72.4409 16.4699 70.5889 12.0048C68.7368 7.53966 65.8747 7.49496 65.7015 7.4668Z" fill="white"/>
</mask>
<g mask="url(#mask0_0_2411)">
<rect id="Rectangle" x="9" y="7" width="141" height="279" fill="url(#paint3_linear_0_2411)"/>
<path id="12:49" fill-rule="evenodd" clip-rule="evenodd" d="M73.4519 81.6385V84.0001H63.1792V81.9073C63.1792 81.2033 63.3114 80.5937 63.5758 80.0785C63.8402 79.5633 64.19 79.1153 64.6253 78.7345C65.0606 78.3537 65.5378 78.0193 66.0569 77.7313C66.576 77.4433 67.0968 77.1713 67.6191 76.9153C68.1415 76.6593 68.6203 76.4017 69.0556 76.1425C69.4908 75.8833 69.8407 75.5937 70.1051 75.2737C70.3695 74.9537 70.5017 74.5761 70.5017 74.1409C70.5017 73.5841 70.3066 73.1297 69.9164 72.7777C69.5263 72.4257 68.9927 72.2497 68.3156 72.2497C67.6127 72.2497 67.0162 72.4513 66.5261 72.8545C66.036 73.2577 65.7329 73.8657 65.6168 74.6785H62.918C62.9309 73.7953 63.1389 72.9937 63.5419 72.2737C63.945 71.5537 64.5495 70.9825 65.3556 70.5601C66.1617 70.1377 67.1742 69.9265 68.393 69.9265C69.4376 69.9265 70.3388 70.1025 71.0966 70.4545C71.8543 70.8065 72.4395 71.2961 72.8522 71.9233C73.2649 72.5505 73.4713 73.2833 73.4713 74.1217C73.4713 74.8193 73.3423 75.4209 73.0844 75.9265C72.8264 76.4321 72.4846 76.8641 72.059 77.2225C71.6334 77.5809 71.1659 77.8945 70.6564 78.1633C70.147 78.4321 69.6392 78.6817 69.1329 78.9121C68.6267 79.1425 68.1608 79.3777 67.7352 79.6177C67.3096 79.8577 66.9678 80.1281 66.7098 80.4289C66.4519 80.7297 66.3229 81.0913 66.3229 81.5137V81.6385H73.4519ZM59.9968 70.1185V84.0001H57.1336V73.6033H54.6379V72.0193C55.4376 72.0193 56.0841 71.9441 56.5774 71.7937C57.0707 71.6433 57.4399 71.4257 57.6849 71.1409C57.93 70.8561 58.0751 70.5153 58.1202 70.1185H59.9968ZM78.4239 77.3185V74.3137H75.3285V77.3185H78.4239ZM78.4239 80.9473V83.9425H75.3285V80.9473H78.4239ZM89.5672 84.0001V80.9281H91.7242V78.5761H89.5672V70.1185H86.791L80.4165 78.6241V80.9281H86.8587L86.849 84.0001H89.5672ZM83.0282 78.5761H86.8587V73.4881L83.0282 78.5761ZM98.2632 84.2113C99.4884 84.2113 100.543 83.9377 101.426 83.3905C102.31 82.8433 102.988 82.0177 103.462 80.9137C103.936 79.8097 104.173 78.4289 104.173 76.7713C104.173 75.3825 103.943 74.1745 103.482 73.1473C103.021 72.1201 102.36 71.3265 101.499 70.7665C100.638 70.2065 99.6142 69.9265 98.4276 69.9265C97.37 69.9265 96.4479 70.1281 95.6611 70.5313C94.8744 70.9345 94.2618 71.4913 93.8233 72.2017C93.3848 72.9121 93.1655 73.7217 93.1655 74.6305C93.1655 75.5329 93.3735 76.3121 93.7894 76.9681C94.2054 77.6241 94.7793 78.1297 95.5112 78.4849C96.2431 78.8401 97.0831 79.0177 98.031 79.0177C98.5534 79.0177 99.0274 78.9489 99.453 78.8113C99.8786 78.6737 100.251 78.4785 100.57 78.2257C100.889 77.9729 101.139 77.6769 101.32 77.3377C101.397 78.4449 101.309 79.3409 101.054 80.0257C100.799 80.7105 100.419 81.2097 99.9124 81.5233C99.4062 81.8369 98.8178 81.9937 98.1471 81.9937C97.5409 81.9937 97.0379 81.8257 96.6381 81.4897C96.2383 81.1537 95.9804 80.7169 95.8643 80.1793H93.1752C93.2332 80.9921 93.5008 81.7009 93.978 82.3057C94.4552 82.9105 95.0711 83.3793 95.8256 83.7121C96.5801 84.0449 97.3926 84.2113 98.2632 84.2113ZM96.8413 76.1905C97.2669 76.5905 97.8247 76.7905 98.5147 76.7905C98.9081 76.7905 99.2901 76.7025 99.6609 76.5265C100.032 76.3505 100.336 76.1281 100.575 75.8593C100.814 75.5905 100.933 75.3121 100.933 75.0241C100.939 74.4033 100.841 73.8705 100.638 73.4257C100.435 72.9809 100.151 72.6401 99.7867 72.4033C99.4223 72.1665 98.9983 72.0481 98.5147 72.0481C98.0697 72.0481 97.6731 72.1505 97.3249 72.3553C96.9767 72.5601 96.7026 72.8481 96.5027 73.2193C96.3028 73.5905 96.2028 74.0193 96.2028 74.5057C96.2028 75.2289 96.4156 75.7905 96.8413 76.1905Z" fill="white"/>
</g>
</g>
</g>
</g>
</g>
<defs>
<filter id="filter0_d_0_2411" x="-53.4475" y="-54.6582" width="315.765" height="459.317" filterUnits="userSpaceOnUse" color-interpolation-filters="sRGB">
<feFlood flood-opacity="0" result="BackgroundImageFix"/>
<feColorMatrix in="SourceAlpha" type="matrix" values="0 0 0 0 0 0 0 0 0 0 0 0 0 0 0 0 0 0 127 0" result="hardAlpha"/>
<feOffset dx="25" dy="25"/>
<feGaussianBlur stdDeviation="40"/>
<feColorMatrix type="matrix" values="0 0 0 0 0.212302 0 0 0 0 0.32521 0 0 0 0 0.419299 0 0 0 0.300727 0"/>
<feBlend mode="normal" in2="BackgroundImageFix" result="effect1_dropShadow_0_2411"/>
<feBlend mode="normal" in="SourceGraphic" in2="effect1_dropShadow_0_2411" result="shape"/>
</filter>
<linearGradient id="paint0_linear_0_2411" x1="6.05457" y1="0" x2="6.05457" y2="7.39437" gradientUnits="userSpaceOnUse">
<stop stop-color="#454545"/>
<stop offset="0.226279" stop-color="#999999"/>
<stop offset="1" stop-color="white"/>
</linearGradient>
<linearGradient id="paint1_linear_0_2411" x1="157.249" y1="51.4485" x2="151.529" y2="51.4485" gradientUnits="userSpaceOnUse">
<stop stop-color="white" stop-opacity="0.01"/>
<stop offset="0.222178" stop-color="#BABABA"/>
<stop offset="0.54678" stop-color="white" stop-opacity="0.01"/>
<stop offset="1" stop-color="white" stop-opacity="0.01"/>
</linearGradient>
<linearGradient id="paint2_linear_0_2411" x1="1.55249" y1="51.2921" x2="7.28137" y2="51.2921" gradientUnits="userSpaceOnUse">
<stop stop-color="white" stop-opacity="0.01"/>
<stop offset="0.222178" stop-color="#BABABA"/>
<stop offset="0.54678" stop-color="white" stop-opacity="0.01"/>
<stop offset="1" stop-color="white" stop-opacity="0.01"/>
</linearGradient>
<linearGradient id="paint3_linear_0_2411" x1="9.54885" y1="7" x2="9.54885" y2="283.828" gradientUnits="userSpaceOnUse">
<stop stop-color="#9CB6CD"/>
<stop offset="0.420564" stop-color="#9AB3CA"/>
<stop offset="0.716592" stop-color="#557496"/>
<stop offset="1" stop-color="#475178"/>
</linearGradient>
</defs>
</svg>
