<svg width="263" height="500" viewBox="0 0 263 500" fill="none" xmlns="http://www.w3.org/2000/svg">
<g id="iPhone-X-Mockup">
<g id="phone">
<g id="body" filter="url(#filter0_d_0_4455)">
<path fill-rule="evenodd" clip-rule="evenodd" d="M35.776 0.569458H227.009C245.35 0.569458 260.217 14.8048 260.217 32.365V467.635C260.217 485.195 245.35 499.431 227.009 499.431H35.776C17.4357 499.431 2.56787 485.195 2.56787 467.635V32.365C2.56787 14.8048 17.4357 0.569458 35.776 0.569458Z" fill="#213648"/>
</g>
<g id="frame">
<path id="reflect-frame-top" opacity="0.595562" fill-rule="evenodd" clip-rule="evenodd" d="M227.749 0H34.9226C25.92 0.548956 17.6174 4.65694 10.0146 12.3239C14.9041 8.05589 23.6249 2.34456 35.1546 2.34456C35.1546 2.34456 219.83 2.34456 227.517 2.34456C239.046 2.34456 247.767 8.05589 252.656 12.3239C245.054 4.65694 236.751 0.548956 227.749 0Z" fill="url(#paint0_linear_0_4455)" fill-opacity="0.65"/>
<path id="reflect-frame-right" opacity="0.75" fill-rule="evenodd" clip-rule="evenodd" d="M254.999 462.671V34.9818C254.999 23.5065 250.782 19.2644 248.266 16.5405C245.75 13.8166 245.643 12.4272 249.258 14.4839C252.873 16.5405 260.103 22.5306 260.103 34.9818V462.671C260.103 475.122 252.873 481.112 249.258 483.169C245.643 485.225 245.75 483.836 248.266 481.112C250.782 478.388 254.999 474.146 254.999 462.671Z" fill="url(#paint1_linear_0_4455)"/>
<path id="reflect-frame-left" opacity="0.75" fill-rule="evenodd" clip-rule="evenodd" d="M7.67196 462.671V34.9818C7.67196 23.5065 11.8894 19.2644 14.4053 16.5405C16.9212 13.8166 17.0283 12.4272 13.4134 14.4839C9.79843 16.5405 2.56798 22.5306 2.56798 34.9818V462.671C2.56798 475.122 9.79843 481.112 13.4134 483.169C17.0283 485.225 16.9212 483.836 14.4053 481.112C11.8894 478.388 7.67196 474.146 7.67196 462.671Z" fill="url(#paint2_linear_0_4455)"/>
</g>
<g id="controls">
<path id="vol+" fill-rule="evenodd" clip-rule="evenodd" d="M0 103.557C0 102.452 0.89543 101.557 2 101.557H2.96454C4.06911 101.557 4.96454 102.452 4.96454 103.557V163.907C4.96454 165.012 4.06911 165.907 2.96454 165.907H2C0.89543 165.907 0 165.012 0 163.907V103.557Z" fill="#2E423C"/>
<path id="power" fill-rule="evenodd" clip-rule="evenodd" d="M257.535 156.043C257.535 154.939 258.431 154.043 259.535 154.043H260.5C261.605 154.043 262.5 154.939 262.5 156.043V198.993C262.5 200.098 261.605 200.993 260.5 200.993H259.535C258.431 200.993 257.535 200.098 257.535 198.993V156.043Z" fill="#2E423C"/>
</g>
</g>
<g id="Screen" clip-path="url(#clip0_0_4455)">
<path id="Screen Mask" fill-rule="evenodd" clip-rule="evenodd" d="M108.676 12.4445L34.2698 12.4445C23.1653 12.4445 15.0742 20.0078 15.0742 29.8859V452.276C15.0742 465.155 27.5765 476.567 41.7134 476.567H221.046C234.664 476.567 247.686 465.067 247.686 452.276V31.0276C247.686 19.188 238.896 12.5149 228.49 12.4445L152.904 12.4445C152.618 12.4914 147.425 14.6262 145.231 20.0078C143.036 25.3893 138.621 29.6793 133.787 29.6793H128.172C125.874 29.6793 119.824 27.4496 116.76 20.0078C113.697 12.5659 108.963 12.4914 108.676 12.4445Z" fill="white"/>
<mask id="mask0_0_4455" style="mask-type:luminance" maskUnits="userSpaceOnUse" x="15" y="12" width="233" height="465">
<path id="Screen Mask_2" fill-rule="evenodd" clip-rule="evenodd" d="M108.676 12.4445L34.2698 12.4445C23.1653 12.4445 15.0742 20.0078 15.0742 29.8859V452.276C15.0742 465.155 27.5765 476.567 41.7134 476.567H221.046C234.664 476.567 247.686 465.067 247.686 452.276V31.0276C247.686 19.188 238.896 12.5149 228.49 12.4445L152.904 12.4445C152.618 12.4914 147.425 14.6262 145.231 20.0078C143.036 25.3893 138.621 29.6793 133.787 29.6793H128.172C125.874 29.6793 119.824 27.4496 116.76 20.0078C113.697 12.5659 108.963 12.4914 108.676 12.4445Z" fill="white"/>
</mask>
<g mask="url(#mask0_0_4455)">
<rect id="Rectangle" x="15" y="12.4445" width="233" height="465" fill="url(#paint3_linear_0_4455)"/>
<path id="12:49" d="M94.504 141V123.672H90.376V121.032C91.6987 121.032 92.7653 120.909 93.576 120.664C94.3973 120.408 95.0107 120.045 95.416 119.576C95.8213 119.096 96.0613 118.525 96.136 117.864H99.24V141H94.504ZM104.496 141V138.696V137.512C104.496 136.339 104.714 135.325 105.152 134.472C105.589 133.608 106.165 132.861 106.88 132.232C107.605 131.592 108.394 131.032 109.248 130.552C110.112 130.072 110.976 129.619 111.84 129.192C112.704 128.765 113.493 128.339 114.208 127.912C114.933 127.475 115.514 126.989 115.952 126.456C116.389 125.923 116.608 125.293 116.608 124.568C116.608 123.64 116.282 122.883 115.632 122.296C114.992 121.709 114.112 121.416 112.992 121.416C111.829 121.416 110.842 121.752 110.032 122.424C109.221 123.096 108.72 124.109 108.528 125.464H104.064C104.085 123.992 104.426 122.659 105.088 121.464C105.76 120.259 106.762 119.304 108.096 118.6C109.429 117.896 111.104 117.544 113.12 117.544C114.848 117.544 116.336 117.837 117.584 118.424C118.842 119.011 119.813 119.827 120.496 120.872C121.178 121.917 121.52 123.139 121.52 124.536C121.52 125.699 121.306 126.701 120.88 127.544C120.453 128.387 119.888 129.107 119.184 129.704C118.48 130.301 117.706 130.824 116.864 131.272C116.021 131.72 115.178 132.136 114.336 132.52C113.504 132.904 112.736 133.299 112.032 133.704C111.328 134.099 110.762 134.547 110.336 135.048C109.909 135.549 109.696 136.152 109.696 136.856V137.064H121.488V141H104.496ZM129.704 124.856V129.864H124.584V124.856H129.704ZM129.704 135.912V140.904H124.584V135.912H129.704ZM143.451 117.864H148.043V131.96H151.611V135.88H148.043V141H143.547L143.563 135.88H132.907V132.04L143.451 117.864ZM137.227 131.96H143.563V123.48L137.227 131.96ZM162.435 141.352C160.995 141.352 159.651 141.075 158.403 140.52C157.155 139.965 156.137 139.187 155.347 138.184C154.558 137.171 154.115 135.987 154.019 134.632H158.467C158.659 135.528 159.086 136.259 159.747 136.824C160.409 137.379 161.241 137.656 162.243 137.656C163.353 137.656 164.323 137.395 165.155 136.872C165.998 136.349 166.627 135.517 167.043 134.376C167.47 133.235 167.619 131.741 167.491 129.896C167.193 130.461 166.777 130.957 166.243 131.384C165.721 131.8 165.107 132.125 164.403 132.36C163.699 132.584 162.915 132.696 162.051 132.696C160.483 132.696 159.091 132.403 157.875 131.816C156.67 131.219 155.721 130.376 155.027 129.288C154.345 128.189 154.003 126.888 154.003 125.384C154.003 123.869 154.366 122.52 155.091 121.336C155.817 120.152 156.83 119.224 158.131 118.552C159.433 117.88 160.958 117.544 162.707 117.544C164.67 117.544 166.361 118.013 167.779 118.952C169.209 119.88 170.302 121.203 171.059 122.92C171.827 124.627 172.211 126.637 172.211 128.952C172.211 131.715 171.817 134.019 171.027 135.864C170.249 137.699 169.129 139.075 167.667 139.992C166.206 140.899 164.462 141.352 162.435 141.352ZM162.851 128.984C163.502 128.984 164.131 128.84 164.739 128.552C165.358 128.253 165.865 127.88 166.259 127.432C166.654 126.984 166.851 126.52 166.851 126.04C166.862 125.005 166.697 124.12 166.355 123.384C166.025 122.637 165.555 122.067 164.947 121.672C164.35 121.277 163.651 121.08 162.851 121.08C162.115 121.08 161.459 121.251 160.883 121.592C160.307 121.933 159.854 122.413 159.523 123.032C159.193 123.651 159.027 124.365 159.027 125.176C159.027 126.381 159.379 127.32 160.083 127.992C160.787 128.653 161.71 128.984 162.851 128.984Z" fill="white"/>
</g>
</g>
</g>
<defs>
<filter id="filter0_d_0_4455" x="-52.4321" y="-54.4305" width="417.649" height="658.861" filterUnits="userSpaceOnUse" color-interpolation-filters="sRGB">
<feFlood flood-opacity="0" result="BackgroundImageFix"/>
<feColorMatrix in="SourceAlpha" type="matrix" values="0 0 0 0 0 0 0 0 0 0 0 0 0 0 0 0 0 0 127 0" result="hardAlpha"/>
<feOffset dx="25" dy="25"/>
<feGaussianBlur stdDeviation="40"/>
<feColorMatrix type="matrix" values="0 0 0 0 0.212302 0 0 0 0 0.32521 0 0 0 0 0.419299 0 0 0 0.300727 0"/>
<feBlend mode="normal" in2="BackgroundImageFix" result="effect1_dropShadow_0_4455"/>
<feBlend mode="normal" in="SourceGraphic" in2="effect1_dropShadow_0_4455" result="shape"/>
</filter>
<linearGradient id="paint0_linear_0_4455" x1="10.0146" y1="0" x2="10.0146" y2="12.3239" gradientUnits="userSpaceOnUse">
<stop stop-color="#454545"/>
<stop offset="0.226279" stop-color="#999999"/>
<stop offset="1" stop-color="white"/>
</linearGradient>
<linearGradient id="paint1_linear_0_4455" x1="260.103" y1="85.7474" x2="250.642" y2="85.7474" gradientUnits="userSpaceOnUse">
<stop stop-color="white" stop-opacity="0.01"/>
<stop offset="0.222178" stop-color="#BABABA"/>
<stop offset="0.54678" stop-color="white" stop-opacity="0.01"/>
<stop offset="1" stop-color="white" stop-opacity="0.01"/>
</linearGradient>
<linearGradient id="paint2_linear_0_4455" x1="2.56798" y1="85.4868" x2="12.044" y2="85.4868" gradientUnits="userSpaceOnUse">
<stop stop-color="white" stop-opacity="0.01"/>
<stop offset="0.222178" stop-color="#BABABA"/>
<stop offset="0.54678" stop-color="white" stop-opacity="0.01"/>
<stop offset="1" stop-color="white" stop-opacity="0.01"/>
</linearGradient>
<linearGradient id="paint3_linear_0_4455" x1="15.907" y1="12.4445" x2="15.907" y2="473.824" gradientUnits="userSpaceOnUse">
<stop stop-color="#9CB6CD"/>
<stop offset="0.420564" stop-color="#9AB3CA"/>
<stop offset="0.716592" stop-color="#557496"/>
<stop offset="1" stop-color="#475178"/>
</linearGradient>
<clipPath id="clip0_0_4455">
<rect width="233" height="465" fill="white" transform="translate(15.0742 12.4445)"/>
</clipPath>
</defs>
</svg>
