<svg width="280" height="450" viewBox="0 0 280 450" fill="none" xmlns="http://www.w3.org/2000/svg">
<g id="iPhone-X-Mockup">
<g id="phone">
<g id="body" filter="url(#filter0_d_0_1503)">
<path fill-rule="evenodd" clip-rule="evenodd" d="M44.6767 55.3301H155.199C165.799 55.3301 174.392 63.5866 174.392 73.7715V326.228C174.392 336.413 165.799 344.669 155.199 344.669H44.6767C34.0769 344.669 25.4841 336.413 25.4841 326.228V73.7715C25.4841 63.5866 34.0769 55.3301 44.6767 55.3301Z" fill="#213648"/>
</g>
<g id="frame">
<path id="reflect-frame-top" opacity="0.595562" fill-rule="evenodd" clip-rule="evenodd" d="M155.627 55H44.1834C38.9804 55.3184 34.1819 57.701 29.788 62.1479C32.6138 59.6724 37.6539 56.3598 44.3175 56.3598C44.3175 56.3598 151.05 56.3598 155.492 56.3598C162.156 56.3598 167.196 59.6724 170.022 62.1479C165.628 57.701 160.83 55.3184 155.627 55Z" fill="url(#paint0_linear_0_1503)" fill-opacity="0.65"/>
<path id="reflect-frame-right" opacity="0.75" fill-rule="evenodd" clip-rule="evenodd" d="M171.376 323.35V75.2899C171.376 68.6342 168.939 66.1738 167.485 64.5939C166.031 63.0141 165.969 62.2082 168.058 63.4011C170.147 64.5939 174.326 68.0682 174.326 75.2899V323.35C174.326 330.571 170.147 334.045 168.058 335.238C165.969 336.431 166.031 335.625 167.485 334.045C168.939 332.466 171.376 330.005 171.376 323.35Z" fill="url(#paint1_linear_0_1503)"/>
<path id="reflect-frame-left" opacity="0.75" fill-rule="evenodd" clip-rule="evenodd" d="M28.4339 323.35V75.2899C28.4339 68.6342 30.8714 66.1738 32.3255 64.5939C33.7795 63.0141 33.8414 62.2082 31.7522 63.4011C29.6629 64.5939 25.4841 68.0682 25.4841 75.2899V323.35C25.4841 330.571 29.6629 334.045 31.7522 335.238C33.8414 336.431 33.7795 335.625 32.3255 334.045C30.8714 332.466 28.4339 330.005 28.4339 323.35Z" fill="url(#paint2_linear_0_1503)"/>
</g>
<g id="controls">
<path id="vol+" fill-rule="evenodd" clip-rule="evenodd" d="M24 115.338C24 114.546 24.6423 113.903 25.4346 113.903V113.903C26.2269 113.903 26.8692 114.546 26.8692 115.338V149.792C26.8692 150.584 26.2269 151.227 25.4346 151.227V151.227C24.6423 151.227 24 150.584 24 149.792V115.338Z" fill="#2E423C"/>
<path id="power" fill-rule="evenodd" clip-rule="evenodd" d="M172.842 145.78C172.842 144.988 173.484 144.346 174.276 144.346V144.346C175.069 144.346 175.711 144.988 175.711 145.78V170.142C175.711 170.934 175.069 171.577 174.276 171.577V171.577C173.484 171.577 172.842 170.934 172.842 170.142V145.78Z" fill="#2E423C"/>
</g>
</g>
<g id="Screen">
<path id="Screen Mask" fill-rule="evenodd" clip-rule="evenodd" d="M86.8091 62.2178L43.8062 62.2178C37.3884 62.2178 32.7122 66.6045 32.7122 72.3338V317.32C32.7122 324.79 39.9378 331.409 48.1082 331.409H151.753C159.623 331.409 167.149 324.739 167.149 317.32V72.996C167.149 66.129 162.069 62.2586 156.055 62.2178L112.37 62.2178C112.205 62.245 109.204 63.4832 107.936 66.6045C106.668 69.7258 104.116 72.214 101.322 72.214H98.0764C96.7483 72.214 93.2518 70.9208 91.4813 66.6045C89.7108 62.2882 86.9746 62.245 86.8091 62.2178Z" fill="#EDF3F8"/>
<mask id="mask0_0_1503" style="mask-type:luminance" maskUnits="userSpaceOnUse" x="32" y="62" width="136" height="270">
<path id="Screen Mask_2" fill-rule="evenodd" clip-rule="evenodd" d="M86.8091 62.2178L43.8062 62.2178C37.3884 62.2178 32.7122 66.6045 32.7122 72.3338V317.32C32.7122 324.79 39.9378 331.409 48.1082 331.409H151.753C159.623 331.409 167.149 324.739 167.149 317.32V72.996C167.149 66.129 162.069 62.2586 156.055 62.2178L112.37 62.2178C112.205 62.245 109.204 63.4832 107.936 66.6045C106.668 69.7258 104.116 72.214 101.322 72.214H98.0764C96.7483 72.214 93.2518 70.9208 91.4813 66.6045C89.7108 62.2882 86.9746 62.245 86.8091 62.2178Z" fill="white"/>
</mask>
<g mask="url(#mask0_0_1503)">
<rect id="Rectangle" x="32.7122" y="62.2178" width="134.662" height="66.12" fill="#36536B"/>
<g id="Group 27">
<path id="payapi" fill-rule="evenodd" clip-rule="evenodd" d="M124.59 84.8265V83.6191H124.146V84.8265H124.59ZM93.8868 94.1104V91.2385H93.9102C94.1126 91.5355 94.3715 91.7601 94.6869 91.9125C95.0023 92.0649 95.3469 92.1411 95.7207 92.1411C96.1645 92.1411 96.5519 92.0551 96.8829 91.8832C97.2138 91.7113 97.4903 91.4808 97.7122 91.1916C97.9341 90.9025 98.0996 90.5703 98.2086 90.1952C98.3176 89.8201 98.3721 89.4294 98.3721 89.023C98.3721 88.5932 98.3176 88.181 98.2086 87.7863C98.0996 87.3917 97.9322 87.0459 97.7064 86.7489C97.4805 86.452 97.1963 86.2136 96.8537 86.0339C96.511 85.8542 96.1022 85.7643 95.6272 85.7643C95.2534 85.7643 94.9108 85.8385 94.5993 85.987C94.2878 86.1355 94.0309 86.3738 93.8284 86.7021H93.805V85.9284H92.2281V94.1104H93.8868ZM95.2768 90.8986C95.012 90.8986 94.7862 90.8439 94.5993 90.7345C94.4124 90.6251 94.2625 90.4824 94.1496 90.3066C94.0367 90.1308 93.9549 89.9256 93.9043 89.6912C93.8537 89.4567 93.8284 89.2184 93.8284 88.9761C93.8284 88.7261 93.8518 88.4838 93.8985 88.2494C93.9452 88.0149 94.025 87.8078 94.1379 87.6281C94.2508 87.4484 94.3988 87.3018 94.5818 87.1885C94.7648 87.0752 94.9926 87.0186 95.2651 87.0186C95.5299 87.0186 95.7537 87.0752 95.9367 87.1885C96.1197 87.3018 96.2696 87.4503 96.3864 87.634C96.5033 87.8176 96.587 88.0267 96.6376 88.2611C96.6882 88.4955 96.7135 88.7339 96.7135 88.9761C96.7135 89.2184 96.6901 89.4567 96.6434 89.6912C96.5967 89.9256 96.5169 90.1308 96.404 90.3066C96.2911 90.4824 96.1431 90.6251 95.9601 90.7345C95.7771 90.8439 95.5493 90.8986 95.2768 90.8986ZM102.172 91.977C101.814 92.0864 101.448 92.1411 101.074 92.1411C100.786 92.1411 100.517 92.1059 100.268 92.0356C100.019 91.9653 99.8008 91.8559 99.6139 91.7074C99.427 91.5589 99.281 91.3714 99.1759 91.1447C99.0707 90.9181 99.0182 90.6485 99.0182 90.3359C99.0182 89.9921 99.0785 89.7088 99.1992 89.4861C99.3199 89.2633 99.4757 89.0855 99.6665 88.9527C99.8572 88.8198 100.075 88.7202 100.321 88.6538C100.566 88.5874 100.813 88.5346 101.062 88.4955C101.311 88.4565 101.557 88.4252 101.798 88.4018C102.04 88.3783 102.254 88.3431 102.441 88.2963C102.627 88.2494 102.775 88.181 102.884 88.0911C102.993 88.0013 103.044 87.8704 103.036 87.6984C103.036 87.5187 103.007 87.3761 102.949 87.2706C102.89 87.1651 102.812 87.083 102.715 87.0244C102.618 86.9658 102.505 86.9267 102.376 86.9072C102.248 86.8877 102.11 86.8779 101.962 86.8779C101.635 86.8779 101.378 86.9482 101.191 87.0889C101.004 87.2295 100.895 87.464 100.864 87.7922H99.2051C99.2284 87.4015 99.3258 87.0772 99.4971 86.8193C99.6684 86.5614 99.8864 86.3543 100.151 86.198C100.416 86.0417 100.714 85.9303 101.045 85.8639C101.376 85.7975 101.709 85.7643 102.043 85.7643C102.347 85.7643 102.655 85.7858 102.966 85.8288C103.278 85.8717 103.562 85.9557 103.819 86.0808C104.076 86.2058 104.286 86.3797 104.45 86.6024C104.613 86.8251 104.695 87.1201 104.695 87.4874V90.6407C104.695 90.9142 104.711 91.176 104.742 91.4261C104.773 91.6761 104.827 91.8637 104.905 91.9887H103.223C103.192 91.8949 103.167 91.7992 103.147 91.7015C103.128 91.6038 103.114 91.5042 103.106 91.4026C102.842 91.6761 102.53 91.8676 102.172 91.977ZM101.693 91.0392C101.561 91.0392 101.432 91.0275 101.308 91.0041C101.183 90.9806 101.074 90.9396 100.981 90.881C100.887 90.8224 100.813 90.7423 100.759 90.6407C100.704 90.5391 100.677 90.4141 100.677 90.2656C100.677 90.1093 100.704 89.9803 100.759 89.8787C100.813 89.7772 100.885 89.6931 100.975 89.6267C101.064 89.5603 101.169 89.5075 101.29 89.4685C101.411 89.4294 101.533 89.3981 101.658 89.3747C101.79 89.3513 101.923 89.3317 102.055 89.3161C102.188 89.3005 102.314 89.2809 102.435 89.2575C102.555 89.234 102.668 89.2047 102.773 89.1696C102.879 89.1344 102.966 89.0855 103.036 89.023V89.6443C103.036 89.7381 103.027 89.8631 103.007 90.0194C102.988 90.1757 102.935 90.33 102.849 90.4824C102.764 90.6348 102.631 90.7657 102.452 90.8751C102.273 90.9845 102.02 91.0392 101.693 91.0392ZM108.121 93.7939C107.802 94.0049 107.358 94.1104 106.789 94.1104C106.618 94.1104 106.449 94.1046 106.281 94.0928C106.114 94.0811 105.944 94.0674 105.773 94.0518V92.6803C105.929 92.696 106.089 92.7116 106.252 92.7272C106.416 92.7428 106.579 92.7468 106.743 92.7389C106.961 92.7155 107.122 92.6295 107.227 92.4811C107.333 92.3326 107.385 92.1685 107.385 91.9887C107.385 91.8559 107.362 91.7308 107.315 91.6136L105.201 85.9284H106.965L108.331 90.078H108.355L109.674 85.9284H111.392L108.869 92.7389C108.689 93.2313 108.44 93.5829 108.121 93.7939ZM113.614 92.1294C113.903 92.1294 114.167 92.0942 114.409 92.0239C114.65 91.9536 114.866 91.8559 115.057 91.7308C115.248 91.6058 115.409 91.4632 115.542 91.303C115.674 91.1428 115.775 90.9728 115.845 90.7931H115.869V91.1096C115.869 91.2346 115.879 91.3499 115.898 91.4554C115.917 91.5609 115.954 91.6527 116.009 91.7308C116.063 91.809 116.143 91.8715 116.248 91.9184C116.354 91.9653 116.496 91.9887 116.675 91.9887C116.799 91.9887 116.92 91.9731 117.037 91.9418V91.5667C116.897 91.5902 116.788 91.6019 116.71 91.6019C116.609 91.6019 116.531 91.5804 116.476 91.5374C116.422 91.4944 116.383 91.4378 116.359 91.3675C116.336 91.2971 116.322 91.219 116.319 91.133C116.315 91.047 116.313 90.9611 116.313 90.8751V87.3702C116.313 86.9091 116.147 86.536 115.816 86.2508C115.485 85.9655 114.958 85.8229 114.234 85.8229C113.509 85.8229 112.951 85.989 112.557 86.3211C112.164 86.6532 111.952 87.1514 111.921 87.8157H112.365C112.396 87.2764 112.577 86.874 112.908 86.6083C113.239 86.3426 113.673 86.2097 114.21 86.2097C114.514 86.2097 114.771 86.241 114.981 86.3035C115.191 86.366 115.363 86.452 115.495 86.5614C115.627 86.6708 115.725 86.7958 115.787 86.9365C115.849 87.0772 115.88 87.2295 115.88 87.3937C115.88 87.6047 115.869 87.7805 115.845 87.9212C115.822 88.0618 115.764 88.1771 115.67 88.267C115.577 88.3568 115.439 88.4272 115.256 88.478C115.073 88.5287 114.821 88.5659 114.502 88.5893L113.813 88.6479C113.572 88.6714 113.32 88.7104 113.06 88.7651C112.799 88.8198 112.561 88.9117 112.347 89.0406C112.133 89.1696 111.956 89.3454 111.816 89.5681C111.675 89.7908 111.605 90.078 111.605 90.4297C111.605 91.008 111.781 91.4358 112.131 91.7133C112.481 91.9907 112.976 92.1294 113.614 92.1294ZM112.47 91.4202C112.75 91.6351 113.136 91.7426 113.626 91.7426C114.132 91.7426 114.533 91.6507 114.829 91.4671C115.125 91.2834 115.351 91.0724 115.507 90.8341C115.662 90.5957 115.762 90.3652 115.805 90.1425C115.847 89.9198 115.869 89.7693 115.869 89.6912V88.5659C115.76 88.6987 115.594 88.7886 115.372 88.8355C115.15 88.8824 114.903 88.9175 114.631 88.941L113.883 89.0113C113.665 89.0348 113.447 89.068 113.229 89.1109C113.011 89.1539 112.814 89.2262 112.639 89.3278C112.464 89.4294 112.322 89.5681 112.213 89.7439C112.104 89.9198 112.049 90.1484 112.049 90.4297C112.049 90.8751 112.189 91.2053 112.47 91.4202ZM118.185 94.1456V90.7345H118.209C118.388 91.2268 118.672 91.5824 119.061 91.8012C119.451 92.02 119.894 92.1294 120.393 92.1294C120.852 92.1294 121.251 92.0512 121.59 91.8949C121.929 91.7387 122.209 91.5218 122.431 91.2444C122.653 90.9669 122.818 90.6368 122.927 90.2539C123.037 89.8709 123.091 89.4489 123.091 88.9879C123.091 88.5659 123.037 88.1634 122.927 87.7805C122.818 87.3976 122.653 87.0615 122.431 86.7724C122.209 86.4832 121.929 86.2527 121.59 86.0808C121.251 85.9089 120.852 85.8229 120.393 85.8229C120.066 85.8229 119.776 85.8737 119.523 85.9753C119.27 86.0769 119.053 86.2039 118.874 86.3563C118.695 86.5086 118.551 86.6747 118.442 86.8544C118.333 87.0342 118.255 87.1983 118.209 87.3468H118.185V85.9636H117.741V94.1456H118.185ZM119.336 91.514C119.62 91.6664 119.972 91.7426 120.393 91.7426C120.782 91.7426 121.119 91.6683 121.403 91.5198C121.687 91.3714 121.921 91.1721 122.104 90.922C122.287 90.6719 122.423 90.3808 122.513 90.0487C122.602 89.7166 122.647 89.363 122.647 88.9879C122.647 88.644 122.604 88.306 122.519 87.9739C122.433 87.6418 122.301 87.3448 122.122 87.083C121.942 86.8212 121.711 86.6102 121.427 86.45C121.142 86.2898 120.798 86.2097 120.393 86.2097C119.996 86.2097 119.657 86.2879 119.377 86.4442C119.096 86.6005 118.868 86.8076 118.693 87.0654C118.518 87.3233 118.392 87.6183 118.314 87.9505C118.236 88.2826 118.197 88.6284 118.197 88.9879C118.197 89.3473 118.232 89.6931 118.302 90.0253C118.372 90.3574 118.491 90.6505 118.658 90.9044C118.826 91.1584 119.051 91.3616 119.336 91.514ZM124.146 85.9636H124.59V91.9887H124.146V85.9636Z" fill="white"/>
<g id="Group 25">
<circle id="Oval" cx="82.4246" cy="83.5114" r="1.097" transform="rotate(45 82.4246 83.5114)" fill="white"/>
<circle id="Oval Copy 6" cx="85.0056" cy="86.1012" r="1.097" transform="rotate(45 85.0056 86.1012)" fill="white"/>
<circle id="Oval Copy 7" cx="87.5867" cy="88.692" r="1.097" transform="rotate(45 87.5867 88.692)" fill="white"/>
<circle id="Oval Copy 10" cx="79.8434" cy="86.1012" r="1.097" transform="rotate(45 79.8434 86.1012)" fill="white"/>
<circle id="Oval Copy 9" opacity="0.5" cx="82.4246" cy="88.692" r="1.097" transform="rotate(45 82.4246 88.692)" fill="white"/>
<circle id="Oval Copy 8" opacity="0.5" cx="85.0056" cy="91.2819" r="1.097" transform="rotate(45 85.0056 91.2819)" fill="white"/>
<circle id="Oval Copy 13" cx="77.2623" cy="88.692" r="1.097" transform="rotate(45 77.2623 88.692)" fill="white"/>
<circle id="Oval Copy 12" opacity="0.5" cx="79.8434" cy="91.2819" r="1.097" transform="rotate(45 79.8434 91.2819)" fill="white"/>
<circle id="Oval Copy 11" opacity="0.25" cx="82.4246" cy="93.8727" r="1.097" transform="rotate(45 82.4246 93.8727)" fill="white"/>
</g>
</g>
</g>
</g>
</g>
<defs>
<filter id="filter0_d_0_1503" x="-29.5159" y="0.330078" width="308.908" height="449.34" filterUnits="userSpaceOnUse" color-interpolation-filters="sRGB">
<feFlood flood-opacity="0" result="BackgroundImageFix"/>
<feColorMatrix in="SourceAlpha" type="matrix" values="0 0 0 0 0 0 0 0 0 0 0 0 0 0 0 0 0 0 127 0" result="hardAlpha"/>
<feOffset dx="25" dy="25"/>
<feGaussianBlur stdDeviation="40"/>
<feColorMatrix type="matrix" values="0 0 0 0 0.212302 0 0 0 0 0.32521 0 0 0 0 0.419299 0 0 0 0.300727 0"/>
<feBlend mode="normal" in2="BackgroundImageFix" result="effect1_dropShadow_0_1503"/>
<feBlend mode="normal" in="SourceGraphic" in2="effect1_dropShadow_0_1503" result="shape"/>
</filter>
<linearGradient id="paint0_linear_0_1503" x1="29.788" y1="55" x2="29.788" y2="62.1479" gradientUnits="userSpaceOnUse">
<stop stop-color="#454545"/>
<stop offset="0.226279" stop-color="#999999"/>
<stop offset="1" stop-color="white"/>
</linearGradient>
<linearGradient id="paint1_linear_0_1503" x1="174.326" y1="104.734" x2="168.858" y2="104.734" gradientUnits="userSpaceOnUse">
<stop stop-color="white" stop-opacity="0.01"/>
<stop offset="0.222178" stop-color="#BABABA"/>
<stop offset="0.54678" stop-color="white" stop-opacity="0.01"/>
<stop offset="1" stop-color="white" stop-opacity="0.01"/>
</linearGradient>
<linearGradient id="paint2_linear_0_1503" x1="25.4841" y1="104.583" x2="30.9608" y2="104.583" gradientUnits="userSpaceOnUse">
<stop stop-color="white" stop-opacity="0.01"/>
<stop offset="0.222178" stop-color="#BABABA"/>
<stop offset="0.54678" stop-color="white" stop-opacity="0.01"/>
<stop offset="1" stop-color="white" stop-opacity="0.01"/>
</linearGradient>
</defs>
</svg>
